# xmcd
#
# Track frame offsets: 
#        150
#        19267
#        36902
#        56102
#        73727
#        92870
#
# Disc length: 1472 seconds
#
# Revision: 0
# Processed by: cddbd v1.5.2PL0 Copyright (c) Steve Scherf et al.
# Submitted via: ExactAudioCopy v0.99pb5
#
DISCID=5305be06
DTITLE=Ray J - Wait A Minute [CDM)
DYEAR=2001
DGENRE=R&B
TTITLE0=Wait A Minute (Soul Society Remix)
TTITLE1=Wait A Minute (feat. Lil' Kim) (Explicit)
TTITLE2=Wait A Minute (Soul Society Instrumental Hook Remix)
TTITLE3=Wait A Minute (No Rap) (Explicit)
TTITLE4=Wait A Minute (Soul Society Remix)
TTITLE5=Wait A Minute (LP Instrumental)
EXTD=
EXTT0=
EXTT1=
EXTT2=
EXTT3=
EXTT4=
EXTT5=
PLAYORDER=
